<svg width="622" height="214" viewBox="0 0 622 214" fill="none" xmlns="http://www.w3.org/2000/svg">
<g filter="url(#filter0_d_11_131)">
<path d="M208.049 25.0596C208.754 23.9313 208.982 22.5691 208.683 21.2727C208.384 19.9763 207.582 18.8518 206.454 18.1467C205.326 17.4415 203.963 17.2135 202.667 17.5126C201.371 17.8118 200.246 18.6137 199.541 19.742C199.541 19.742 199.541 19.742 199.541 19.742C197.626 22.852 195.638 25.7274 193.481 28.7265C190.656 32.652 187.751 36.5384 184.804 40.4534C184.804 40.4537 184.804 40.454 184.803 40.4543C168.308 62.2571 151.754 84.1499 134.986 105.841C134.984 105.844 134.982 105.847 134.98 105.849C117.178 128.898 99.2297 151.799 81.694 175.19C81.6902 175.196 81.6863 175.201 81.6825 175.206C78.3364 179.714 75.0371 184.206 71.8454 188.927C69.709 192.046 67.626 195.602 65.8537 198.631C65.2199 199.686 65.0338 200.95 65.3345 202.143C65.6354 203.337 66.3988 204.363 67.4565 204.995C68.5142 205.627 69.7792 205.813 70.973 205.513C72.1667 205.213 73.1917 204.45 73.8206 203.392C73.8206 203.392 73.8206 203.392 73.8206 203.392C75.7961 199.986 77.4572 197.116 79.5159 194.079C82.5287 189.594 85.7772 185.152 89.078 180.706C89.0818 180.701 89.0855 180.696 89.0893 180.691C106.48 157.493 124.49 134.55 142.316 111.535C142.318 111.532 142.321 111.529 142.323 111.526C159.131 89.8409 176.23 68.4148 192.817 46.4915C192.817 46.4912 192.817 46.4909 192.818 46.4906C195.789 42.543 198.718 38.6254 201.629 34.5819C203.821 31.537 206.061 28.2918 208.049 25.0596Z" fill="white"/>
<path d="M4.96787 142.76C4.14766 143.942 3.83061 145.401 4.08647 146.817C4.34233 148.233 5.15015 149.489 6.3322 150.309C7.51425 151.129 8.97372 151.446 10.3895 151.191C11.8053 150.935 13.0615 150.127 13.8817 148.945C13.8817 148.945 13.8817 148.945 13.8817 148.945C19.1101 141.411 24.4835 134.051 30.1284 126.926C47.7307 104.356 68.8804 85.2174 92.6603 69.1525C92.6959 69.1281 92.7315 69.1037 92.7671 69.0793C114.961 54.2728 140.466 43.5704 165.525 32.371C165.569 32.3513 165.613 32.3316 165.657 32.312C192.675 20.095 221.809 13.9171 251.661 11.2245C251.719 11.2188 251.778 11.2131 251.836 11.2074C263.193 10.0338 274.116 12.1345 283.562 18.3615C283.577 18.3712 283.593 18.3809 283.608 18.3906C284.058 18.7014 284.216 18.8404 284.467 19.5793C284.693 20.2992 284.755 21.5132 284.561 22.85C284.559 22.8658 284.556 22.8816 284.554 22.8975C278.789 39.7505 258.136 56.0639 241.922 70.7524C241.907 70.7657 241.891 70.7789 241.876 70.7921C225.794 84.4836 206.501 94.9737 187.429 105.842C187.41 105.853 187.391 105.864 187.373 105.874C176.03 112.376 165.16 119.094 152.978 123.678C152.968 123.682 152.958 123.686 152.948 123.689C148.047 125.586 143.073 127.38 138.076 129.13C129.398 132.166 120.642 135.087 111.886 138.04C110.863 138.384 110.018 139.122 109.536 140.09C109.055 141.058 108.975 142.175 109.316 143.199C109.658 144.223 110.392 145.069 111.358 145.554C112.324 146.039 113.443 146.123 114.467 145.785C114.467 145.785 114.467 145.785 114.467 145.785C123.243 142.888 132.022 139.993 140.799 136.983C145.854 135.247 150.913 133.467 155.953 131.58C155.963 131.576 155.973 131.573 155.983 131.569C168.519 127.026 181.132 121.695 192.63 115.094C192.649 115.083 192.668 115.072 192.687 115.061C211.693 104.2 231.344 93.6166 248.804 78.7898C248.821 78.7753 248.837 78.7609 248.854 78.7464C265.585 62.6906 285.409 51.1567 295.08 24.4125C295.084 24.3857 295.088 24.3588 295.092 24.332C295.812 20.2012 295.249 12.8588 289.368 9.27227C289.351 9.26138 289.333 9.25046 289.316 9.23954C278.286 1.78275 263.773 -1.06999 250.799 0.354187C250.739 0.359761 250.68 0.365345 250.62 0.370934C220.274 2.97414 189.319 9.23006 161.086 22.0242C161.042 22.0438 160.997 22.0634 160.953 22.083C135.831 33.3395 110.329 44.3532 86.6351 60.1288C86.5985 60.1538 86.562 60.1789 86.5256 60.2039C62.1699 76.6246 39.7502 96.9012 21.6248 120.188C15.8008 127.539 10.2963 135.082 4.96787 142.76Z" fill="white"/>
<path d="M217.344 138.87C218.279 139.805 219.546 140.33 220.868 140.33C222.19 140.33 223.458 139.805 224.393 138.87C225.327 137.935 225.853 136.668 225.853 135.346C225.853 134.024 225.327 132.756 224.393 131.821C224.393 131.821 224.393 131.821 224.393 131.821C221.788 129.526 220.429 129.178 218.682 128.282C217.012 127.51 215.374 126.848 213.733 126.225C210.237 124.904 206.739 123.776 203.225 122.744C203.176 122.73 203.128 122.716 203.079 122.701C177.485 118.796 163.577 138.001 149.637 150.489C149.636 150.49 149.636 150.491 149.635 150.491C145.144 155.111 142.589 160.645 140.897 166.424C140.886 166.463 140.875 166.502 140.865 166.541C140.435 168.174 139.993 170.005 140.41 172.535C140.684 175.107 143.276 178.12 145.54 178.865C145.661 178.916 145.783 178.964 145.905 179.01C158.868 183.188 169.093 176.171 177.573 171.173C186.189 165.662 193.962 159.532 201.871 153.782L195.026 147.954C194.991 148.022 194.956 148.091 194.922 148.16C190.867 157.287 187.44 166.083 190.065 177.902L190.3 178.401C190.322 178.433 190.343 178.465 190.365 178.498C190.421 178.579 190.477 178.66 190.535 178.741C193.27 182.496 197.246 183.498 200.513 184.41C200.956 184.523 201.45 184.447 201.875 184.224C202.301 184 202.623 183.647 202.781 183.218C202.939 182.788 202.922 182.311 202.742 181.864C202.563 181.419 202.236 181.042 201.825 180.84C201.825 180.84 201.825 180.84 201.825 180.84C198.937 179.427 196.366 177.599 195.469 175.598C195.445 175.551 195.422 175.503 195.398 175.455C195.389 175.436 195.38 175.417 195.371 175.397L195.606 175.896C195.029 169.26 199.546 159.754 203.175 152.321C203.206 152.262 203.236 152.202 203.266 152.143L196.421 146.315C180.889 157.03 163.617 174.15 149.121 170.441C149.108 170.436 149.097 170.432 149.088 170.428C148.996 170.387 149.135 170.429 149.291 170.608C149.451 170.782 149.518 170.998 149.521 170.963C149.512 170.908 149.588 170.108 149.893 169.251C149.903 169.223 149.912 169.194 149.922 169.166C151.393 164.821 153.986 160.705 156.945 157.712C156.946 157.711 156.946 157.711 156.946 157.71C169.754 145.092 185.833 128.995 200.283 132.27C200.329 132.283 200.375 132.297 200.421 132.31C203.743 133.286 207.037 134.351 210.201 135.547C211.68 136.108 213.136 136.7 214.492 137.328C215.167 137.64 215.817 137.963 216.388 138.282C216.669 138.439 216.93 138.595 217.13 138.728C217.32 138.849 217.484 139 217.344 138.87Z" fill="white"/>
<path d="M270.608 127.441C269.905 128.182 269.524 129.171 269.551 130.192C269.577 131.213 270.008 132.182 270.749 132.885C271.49 133.589 272.48 133.969 273.501 133.942C274.522 133.916 275.49 133.485 276.194 132.744C276.194 132.744 276.194 132.744 276.194 132.744C279.396 129.371 282.513 126.022 285.646 122.589C305.937 99.3294 325.869 79.0608 341.382 48.249C341.383 48.2313 341.384 48.2135 341.384 48.1956C341.413 47.5813 341.331 46.5389 340.644 45.5203C339.959 44.495 338.946 43.9892 338.319 43.796C337.023 43.429 336.476 43.5604 335.942 43.5846C334.942 43.6904 334.313 43.86 333.671 44.0311C332.428 44.3805 331.359 44.7859 330.308 45.3606C330.204 45.4172 330.094 45.48 329.983 45.5459C321.262 52.331 317.928 58.7657 312.685 65.6083C312.634 65.68 312.583 65.7519 312.532 65.8241C296.518 88.678 281.569 112.118 267.173 136.098C267.155 136.128 267.138 136.158 267.12 136.188C259.739 148.593 252.935 161.46 247.235 174.794C245.394 179.06 243.648 183.351 241.92 187.607C241.5 188.641 241.507 189.801 241.942 190.829C242.376 191.858 243.202 192.672 244.236 193.093C245.271 193.513 246.43 193.505 247.459 193.071C248.488 192.636 249.302 191.811 249.722 190.776C249.722 190.776 249.722 190.776 249.722 190.776C251.451 186.52 253.171 182.294 254.969 178.128C260.523 165.141 267.103 152.691 274.361 140.487C274.379 140.458 274.397 140.428 274.414 140.399C288.593 116.781 304.617 94.039 320.461 71.4303C320.512 71.359 320.562 71.2879 320.612 71.2171C325.263 64.8383 330.292 56.487 334.561 52.9453C334.621 52.9051 334.687 52.861 334.758 52.814C335.338 52.4198 335.973 51.9689 336.507 51.6507C336.758 51.4929 337.037 51.3736 336.98 51.3474C336.959 51.3398 336.91 51.339 336.781 51.3305C336.647 51.3171 336.447 51.3169 336.016 51.1826C335.615 51.0588 334.818 50.6798 334.265 49.8526C333.713 49.0303 333.672 48.2354 333.69 47.8578C333.69 47.8465 333.691 47.8354 333.691 47.8244C320.986 70.3439 299.647 95.5952 279.957 117.397C276.858 120.793 273.775 124.104 270.608 127.441Z" fill="white"/>
<path d="M325.546 139.051C326.529 138.805 327.374 138.179 327.895 137.311C328.416 136.442 328.57 135.402 328.325 134.42C328.079 133.437 327.453 132.592 326.585 132.071C325.716 131.55 324.676 131.395 323.694 131.641C323.694 131.641 323.694 131.641 323.694 131.641C322.809 131.862 321.912 132.086 321.033 132.304C313.681 134.124 306.316 135.85 298.923 137.51L299.034 137.487C299.033 137.487 299.033 137.487 299.032 137.487C294.543 138.347 290.121 138.931 286.135 138.497C286.133 138.496 286.132 138.496 286.131 138.496C282.722 138.222 280.554 136.763 277.777 133.927C277.202 133.334 276.633 132.707 276.068 132.056C275.512 131.411 274.74 130.97 273.888 130.855C273.035 130.739 272.177 130.955 271.495 131.461C270.813 131.966 270.356 132.724 270.219 133.573C270.081 134.423 270.278 135.29 270.734 136.009C270.734 136.009 270.734 136.009 270.734 136.009C271.264 136.836 271.828 137.655 272.441 138.46C274.948 142.08 280.146 146.004 285.3 146.207C285.302 146.208 285.303 146.208 285.305 146.208C290.721 146.771 295.736 145.878 300.482 144.986C300.483 144.986 300.483 144.985 300.484 144.985L300.595 144.962C308.037 143.292 315.454 141.554 322.869 139.717C323.756 139.498 324.661 139.272 325.546 139.051Z" fill="white"/>
<path d="M334.976 138.967C335.588 137.962 335.775 136.755 335.498 135.612C335.22 134.468 334.499 133.482 333.494 132.87C332.489 132.258 331.283 132.07 330.139 132.348C328.996 132.626 328.01 133.346 327.398 134.351C327.398 134.351 327.398 134.351 327.398 134.351C325.912 136.764 324.013 139.346 322.149 141.863C315.747 150.544 308.837 158.757 302.817 168.655C302.754 168.764 302.691 168.874 302.629 168.983C302.283 169.643 301.796 170.428 301.71 172.082C301.498 173.745 303.013 176.228 304.241 176.821C306.622 178.143 307.663 177.859 308.773 177.933C310.876 177.887 312.511 177.526 314.207 177.047C314.209 177.047 314.212 177.046 314.214 177.045C341.21 168.165 357.704 143.876 378.35 134.157C378.417 134.135 378.483 134.115 378.552 134.097C379.669 133.765 381.63 134.74 384.137 136.251C384.235 136.31 384.327 136.366 384.414 136.421C385.463 137.16 385.577 137.327 386.006 138.755L385.879 138.055C385.889 138.149 385.898 138.25 385.906 138.358C385.973 147.058 382.425 158.416 379.406 168.578L379.326 168.871C379.309 168.942 379.292 169.013 379.275 169.083C379.075 169.923 378.875 170.784 378.694 171.734C378.343 173.613 377.996 176.137 378.721 178.916C379.453 181.673 380.795 183.641 381.808 185.244C382.647 186.625 384.104 187.383 385.71 187.481C387.319 187.578 388.971 186.983 390.279 185.849C391.586 184.716 392.41 183.165 392.543 181.56C392.674 179.955 392.13 178.406 390.884 177.379C390.884 177.379 390.884 177.379 390.884 177.379C389.818 176.573 389.176 175.939 388.928 175.638C388.653 175.36 388.488 174.595 388.644 173.34C388.714 172.741 388.84 172.086 389.003 171.403C389.017 171.346 389.031 171.288 389.045 171.229L388.964 171.522C392.018 160.703 395.985 150.929 396.04 137.594C396.023 137.377 396.003 137.16 395.98 136.944L395.852 136.244C395.26 133.211 392.569 129.317 389.611 127.789C389.377 127.65 389.143 127.522 388.909 127.401C385.914 125.915 381.521 124.059 376.296 125.338C375.995 125.416 375.699 125.505 375.404 125.607C349.515 138.423 334.917 161.234 311.728 168.528C311.726 168.528 311.724 168.529 311.722 168.529C310.661 168.842 309.458 169.055 308.682 169.06C308.5 169.063 308.352 169.049 308.336 169.046C308.329 169.06 308.437 168.999 309.04 169.358C309.326 169.54 309.787 169.918 310.128 170.525C310.479 171.127 310.6 171.857 310.58 172.305C310.519 173.234 310.331 173.34 310.338 173.376C310.389 173.287 310.441 173.196 310.494 173.105C315.753 164.42 322.779 155.928 329.27 147.157C331.199 144.545 333.125 141.96 334.976 138.967Z" fill="white"/>
<path d="M431.546 116.281C431.367 117.181 431.551 118.115 432.06 118.878C432.569 119.641 433.36 120.171 434.26 120.351C435.159 120.531 436.094 120.346 436.857 119.837C437.62 119.329 438.15 118.537 438.33 117.638C438.33 117.638 438.33 117.638 438.33 117.638C438.396 117.309 438.461 116.981 438.527 116.653C439.709 110.743 440.891 104.833 442.073 98.923C442.139 98.5946 442.204 98.2663 442.27 97.938C442.45 97.0384 442.265 96.1042 441.756 95.3409C441.247 94.5776 440.456 94.0477 439.557 93.8678C438.657 93.6879 437.723 93.8727 436.959 94.3816C436.196 94.8905 435.666 95.6817 435.486 96.5813C435.486 96.5813 435.486 96.5813 435.486 96.5813C435.421 96.9096 435.355 97.2379 435.289 97.5663C434.107 103.476 432.925 109.386 431.743 115.296C431.678 115.624 431.612 115.953 431.546 116.281Z" fill="white"/>
<path d="M448.39 153.831C449.461 154.443 450.732 154.604 451.922 154.28C453.112 153.955 454.124 153.171 454.737 152.1C455.349 151.029 455.51 149.758 455.185 148.568C454.861 147.378 454.077 146.366 453.006 145.754C453.006 145.754 453.006 145.754 453.006 145.754C450.446 144.236 445.852 141.754 440.976 142.706C440.765 142.742 440.562 142.781 440.357 142.825C439.929 142.917 439.515 143.026 439.106 143.151C421.836 147.803 411.596 165.481 409.257 181.105C409.007 182.456 408.787 183.885 408.589 185.051C408.471 185.739 408.392 186.415 408.36 187.09C408.345 187.427 408.341 187.763 408.352 188.101C408.364 188.505 408.4 188.952 408.463 189.379C408.65 190.941 409.55 193.301 411.355 194.744C415.206 197.584 418.304 196.775 420.473 196.576C425.085 195.786 428.652 194.246 432.258 192.682C439.408 189.467 445.965 185.762 452.484 181.986C458.987 178.2 465.38 174.277 471.734 170.443C474.931 168.516 478.091 166.622 481.243 164.845C482.871 163.93 484.423 163.086 485.947 162.348C486.342 162.157 486.705 161.99 487.03 161.848C487.407 161.682 487.781 161.533 488.042 161.441C488.163 161.398 488.316 161.348 488.416 161.32C488.514 161.293 488.557 161.287 488.508 161.295C488.478 161.289 488.199 161.383 487.451 161.216C487.259 161.168 487.066 161.11 486.794 160.99C486.456 160.84 486.072 160.608 485.717 160.283C484.985 159.64 484.533 158.637 484.436 157.955L484.612 155.703C484.242 156.804 483.87 157.908 483.501 159.017C481.364 166.513 477.665 172.832 478.694 183.538L478.949 184.372C479.163 184.895 479.418 185.439 479.717 185.975C480.459 187.32 481.487 188.533 482.561 189.463C485.993 192.335 489.445 193.272 492.792 193.984C493.693 194.15 494.648 194.055 495.479 193.633C496.309 193.211 496.942 192.506 497.248 191.654C497.553 190.801 497.51 189.855 497.136 189.002C496.762 188.148 496.084 187.469 495.283 187.026C495.283 187.026 495.283 187.026 495.283 187.026C492.694 185.564 490.168 184.024 488.86 182.632C488.444 182.192 488.177 181.821 487.937 181.393C487.84 181.219 487.747 181.028 487.653 180.799L487.908 181.633C487.232 177.083 490.042 168.819 492.284 161.948C492.649 160.855 493.018 159.758 493.389 158.657L493.566 156.404C493.423 155.454 492.861 154.24 491.955 153.439C491.514 153.036 491.027 152.738 490.572 152.535C490.205 152.373 489.93 152.289 489.637 152.216C488.531 151.949 487.59 152.072 487.154 152.133C486.714 152.198 486.321 152.29 485.939 152.395C485.748 152.448 485.56 152.505 485.373 152.566C485.211 152.619 485.094 152.658 484.954 152.708C484.421 152.896 483.844 153.13 483.323 153.357C482.872 153.554 482.408 153.768 481.926 154C480.085 154.89 478.43 155.792 476.702 156.757C473.379 158.623 470.173 160.535 466.941 162.468C460.531 166.31 454.173 170.176 447.778 173.866C441.388 177.539 434.954 181.119 428.421 184.028C425.209 185.439 421.833 186.745 419.031 187.191C418.377 187.294 417.729 187.324 417.392 187.289C417.009 187.266 417.053 187.144 417.439 187.44C417.612 187.58 417.766 187.792 417.829 187.928C417.896 188.07 417.882 188.087 417.872 188.01C417.843 187.791 417.839 187.381 417.961 186.673C418.195 185.291 418.384 184.058 418.613 182.822C420.921 168.694 428.607 155.728 441.828 152.047C441.997 151.995 442.157 151.953 442.314 151.92C442.39 151.903 442.462 151.889 442.536 151.877C444.045 151.592 445.58 152.179 448.39 153.831Z" fill="white"/>
<path d="M558.41 148.733C558.826 149.773 559.638 150.605 560.667 151.046C561.696 151.487 562.858 151.501 563.898 151.085C564.937 150.669 565.769 149.858 566.21 148.829C566.651 147.799 566.665 146.637 566.249 145.598C566.249 145.598 566.249 145.598 566.249 145.598C565.11 143.018 564.451 140.113 561.244 136.819C559.909 135.487 557.437 134.321 555.206 134.424C555.131 134.425 555.056 134.427 554.981 134.431C530.852 135.534 523.803 161.259 518.257 176.628C518.168 176.854 518.091 177.086 518.028 177.322C517.378 179.529 518.284 181.87 519.141 182.997C520.021 184.218 520.905 184.927 521.751 185.544C523.468 186.736 525.038 187.481 527.018 188.054C527.127 188.084 527.236 188.113 527.345 188.142C535.685 190.275 543.671 188.078 550.455 185.626C553.887 184.373 557.15 182.94 560.237 181.702C561.771 181.089 563.287 180.52 564.579 180.175C565.213 180.004 565.805 179.896 566.155 179.882C566.512 179.85 566.54 179.989 566.018 179.799L564.793 179.039C565.127 179.325 565.459 179.609 565.792 179.893C574.026 186.437 581.23 193.983 594.435 197.012L594.963 197.068C595.147 197.079 595.334 197.09 595.519 197.098C598.873 197.258 602.012 196.879 604.876 196.446C607.785 195.996 610.549 195.456 613.317 194.891C614.813 194.583 616.138 193.707 616.996 192.439C617.854 191.171 618.177 189.618 617.892 188.118C617.608 186.618 616.738 185.291 615.475 184.425C614.212 183.56 612.658 183.23 611.154 183.493C611.154 183.493 611.154 183.493 611.154 183.493C608.447 183.963 605.766 184.422 603.172 184.782C600.586 185.138 598.226 185.37 596.066 185.262C595.942 185.256 595.816 185.25 595.69 185.242L596.218 185.298C589.231 183.97 580.238 177.564 572.568 171.612C572.239 171.354 571.911 171.094 571.581 170.832L570.356 170.072C566.012 168.483 563.67 169.664 561.631 170.151C559.604 170.79 557.896 171.536 556.241 172.268C552.959 173.741 549.936 175.212 546.902 176.458C540.895 178.949 534.778 180.572 529.481 179.397C529.411 179.382 529.34 179.366 529.27 179.35C528.478 179.18 527.385 178.738 526.721 178.318C526.389 178.12 526.157 177.889 526.192 177.943C526.205 177.974 526.299 178.106 526.378 178.416C526.461 178.717 526.468 179.207 526.364 179.561C526.342 179.641 526.317 179.716 526.29 179.783C532.093 162.575 538.7 143.149 555.324 142.867C555.328 142.867 555.332 142.867 555.335 142.867C555.382 142.869 555.318 142.863 555.307 142.855C555.292 142.849 555.352 142.87 555.486 142.995C556.273 143.655 557.436 146.222 558.41 148.733Z" fill="white"/>
<path d="M480.904 122.318C479.887 122.318 478.912 122.722 478.193 123.441C477.473 124.16 477.069 125.135 477.069 126.152C477.069 127.17 477.473 128.145 478.193 128.864C478.912 129.583 479.887 129.987 480.904 129.987C481.027 129.981 481.553 130.016 482.299 129.818C483.049 129.629 483.818 129.15 484.258 128.72C485.565 127.346 485.576 126.703 485.844 126.082C485.847 126.071 485.851 126.061 485.854 126.05C486.674 123.274 486.97 121.487 487.515 119.551C487.516 119.548 487.517 119.544 487.518 119.54C488.015 117.7 488.712 115.852 489.498 113.885C489.593 113.645 489.69 113.402 489.788 113.158C490.173 112.195 490.16 111.119 489.751 110.166C489.343 109.213 488.573 108.461 487.61 108.076C486.647 107.69 485.57 107.704 484.617 108.112C483.664 108.521 482.912 109.291 482.527 110.254C482.527 110.254 482.527 110.254 482.527 110.254C482.429 110.498 482.331 110.744 482.232 110.991C481.427 113.011 480.594 115.185 479.971 117.492C479.97 117.496 479.968 117.501 479.967 117.506C479.355 119.738 479.001 122.245 478.581 123.614C478.58 123.617 478.579 123.62 478.578 123.623C478.55 123.708 478.524 123.763 478.543 123.722C478.574 123.681 478.605 123.526 479.01 123.127C479.26 122.878 479.797 122.538 480.292 122.416C480.784 122.287 481.044 122.324 480.904 122.318Z" fill="white"/>
</g>
<defs>
<filter id="filter0_d_11_131" x="0" y="0" width="621.993" height="213.653" filterUnits="userSpaceOnUse" color-interpolation-filters="sRGB">
<feFlood flood-opacity="0" result="BackgroundImageFix"/>
<feColorMatrix in="SourceAlpha" type="matrix" values="0 0 0 0 0 0 0 0 0 0 0 0 0 0 0 0 0 0 127 0" result="hardAlpha"/>
<feOffset dy="4"/>
<feGaussianBlur stdDeviation="2"/>
<feComposite in2="hardAlpha" operator="out"/>
<feColorMatrix type="matrix" values="0 0 0 0 0 0 0 0 0 0 0 0 0 0 0 0 0 0 0.25 0"/>
<feBlend mode="normal" in2="BackgroundImageFix" result="effect1_dropShadow_11_131"/>
<feBlend mode="normal" in="SourceGraphic" in2="effect1_dropShadow_11_131" result="shape"/>
</filter>
</defs>
</svg>
